<svg width="100" height="100" viewBox="0 0 100 100" fill="none" xmlns="http://www.w3.org/2000/svg">
<rect width="100" height="100" fill="black"/>
<path d="M59.6445 50.0838C59.6445 55.3396 55.3693 59.5984 50.0968 59.5984C44.8203 59.5984 40.5449 55.3396 40.5449 50.0838C40.5449 44.8319 44.8203 40.5694 50.0968 40.5694C55.3693 40.5694 59.6445 44.8319 59.6445 50.0838Z" fill="white"/>
<path d="M73.4875 69.1167C78.1907 63.3956 80.5934 56.1531 80.2558 48.7191C79.9181 41.1951 76.7931 34.1249 71.4538 28.8065C70.1622 27.5199 68.745 26.3427 67.2375 25.3064C67.3827 27.0974 67.1942 28.8886 66.6838 30.6367C65.8515 33.4836 64.2106 35.9707 61.9414 37.8478C62.016 37.9182 62.0905 37.9885 62.1651 38.0628C68.0618 43.9404 68.847 53.1029 64.0417 59.8799C64.3243 64.8972 68.4466 68.929 73.4875 69.1167Z" fill="white"/>
<path d="M59.8063 64.065C53.0105 68.7617 43.8984 67.9561 38.0253 62.1098C35.7168 59.8064 34.1307 56.9165 33.4358 53.7372C29.7023 50.2763 23.8919 50.2488 20.123 53.6706C20.9318 60.4399 23.9076 66.5523 28.7365 71.3623C34.433 77.0366 42.018 80.1611 50.0975 80.1611C57.0739 80.1611 63.846 77.7522 69.2206 73.3685C64.7882 71.9137 61.306 68.4723 59.8063 64.065Z" fill="white"/>
<path d="M33.2186 47.6049C33.7525 43.9603 35.4093 40.6675 38.0239 38.0631C43.1944 32.9168 51.0501 31.6223 57.6103 34.8251C61.9171 32.1737 63.4993 26.6362 61.2379 22.1195C57.6143 20.6961 53.8297 20 50.0844 20C42.2168 20 34.5063 23.0581 28.7352 28.8067C23.6511 33.8748 20.5575 40.5815 20 47.7379C24.1419 45.634 29.0296 45.5832 33.2186 47.6049Z" fill="white"/>
</svg>
